<svg width="1367" height="1546" viewBox="0 0 1367 1546" fill="none" xmlns="http://www.w3.org/2000/svg">
<g clip-path="url(#clip0_2_2)">
<path d="M661 1362C1036.55 1362 1341 1057.55 1341 682C1341 306.446 1036.55 2 661 2C285.446 2 -19 306.446 -19 682C-19 1057.55 285.446 1362 661 1362Z" fill="#FFE819"/>
<path d="M596.164 1488.62C586.691 1488.62 578.977 1485.65 573.022 1479.69C567.203 1473.74 563.887 1465.75 563.075 1455.74L581.142 1450.26C582.225 1457.84 584.052 1463.45 586.623 1467.11C589.33 1470.76 593.119 1472.59 597.991 1472.59C601.78 1472.59 604.69 1471.5 606.72 1469.34C608.885 1467.04 609.968 1463.99 609.968 1460.2C609.968 1456.82 609.224 1453.78 607.735 1451.07C606.246 1448.36 603.81 1445.59 600.427 1442.75L580.33 1425.49C575.729 1421.57 572.142 1417.44 569.571 1413.11C567.135 1408.64 565.917 1403.23 565.917 1396.87C565.917 1387.8 568.624 1380.76 574.037 1375.76C579.45 1370.61 586.826 1368.04 596.164 1368.04C605.096 1368.04 612.066 1370.95 617.073 1376.77C622.216 1382.45 625.193 1389.83 626.005 1398.9L611.389 1404.38C610.442 1397.75 608.885 1392.74 606.72 1389.36C604.555 1385.84 601.307 1384.08 596.976 1384.08C593.457 1384.08 590.615 1385.23 588.45 1387.53C586.42 1389.83 585.405 1392.67 585.405 1396.06C585.405 1400.39 587.367 1404.31 591.292 1407.83L611.998 1426.91C617.276 1431.78 621.336 1436.59 624.178 1441.32C627.155 1446.06 628.644 1451.81 628.644 1458.58C628.644 1468.32 625.734 1475.77 619.915 1480.91C614.096 1486.05 606.179 1488.62 596.164 1488.62ZM676.151 1488.62C659.234 1488.62 650.776 1479.29 650.776 1460.61V1384.08H638.393V1369.67H650.776V1335.36H672.497V1369.67H691.376V1384.08H672.497V1459.19C672.497 1463.93 673.241 1467.24 674.73 1469.14C676.218 1471.03 679.06 1471.98 683.256 1471.98C685.962 1471.98 688.601 1471.77 691.173 1471.37V1487.41C685.759 1488.22 680.752 1488.62 676.151 1488.62ZM728.447 1488.62C723.981 1488.62 719.921 1487.34 716.267 1484.77C712.748 1482.2 709.974 1478.81 707.944 1474.62C705.914 1470.42 704.899 1466.02 704.899 1461.42C704.899 1452.22 706.861 1444.78 710.786 1439.09C714.711 1433.27 719.718 1428.67 725.808 1425.29C731.898 1421.9 740.356 1418.05 751.183 1413.72V1405.39C751.183 1397.68 750.371 1392.27 748.747 1389.15C747.258 1385.91 744.146 1384.28 739.409 1384.28C731.154 1384.28 727.026 1389.83 727.026 1400.93V1406.81L705.508 1406C705.779 1393.01 708.756 1383.47 714.44 1377.38C720.124 1371.15 728.921 1368.04 740.83 1368.04C752.063 1368.04 760.183 1371.15 765.19 1377.38C770.333 1383.47 772.904 1392.74 772.904 1405.19V1458.78C772.904 1467.58 773.581 1476.99 774.934 1487H755.04C753.551 1479.29 752.604 1473.53 752.198 1469.74C750.574 1475.02 747.732 1479.49 743.672 1483.14C739.747 1486.8 734.672 1488.62 728.447 1488.62ZM736.973 1469.95C739.815 1469.95 742.589 1468.87 745.296 1466.7C748.003 1464.4 749.965 1462.23 751.183 1460.2V1426.91C745.364 1430.16 740.83 1433 737.582 1435.44C734.469 1437.74 731.83 1440.45 729.665 1443.56C727.635 1446.67 726.62 1450.39 726.62 1454.72C726.62 1459.59 727.5 1463.38 729.259 1466.09C731.018 1468.66 733.59 1469.95 736.973 1469.95ZM825.843 1488.62C816.64 1488.62 809.535 1486.8 804.528 1483.14C799.52 1479.35 796.069 1474.14 794.175 1467.51C792.415 1460.75 791.536 1452.22 791.536 1441.93V1414.93C791.536 1404.38 792.415 1395.72 794.175 1388.95C796.069 1382.18 799.52 1377.04 804.528 1373.52C809.535 1369.87 816.64 1368.04 825.843 1368.04C834.233 1368.04 840.729 1369.4 845.331 1372.1C850.067 1374.81 853.315 1378.87 855.075 1384.28C856.969 1389.56 857.917 1396.46 857.917 1404.99V1411.89H838.226V1404.78C838.226 1397.07 837.346 1391.73 835.587 1388.75C833.963 1385.64 830.782 1384.08 826.046 1384.08C822.392 1384.08 819.685 1384.89 817.926 1386.51C816.166 1388.14 814.948 1390.78 814.272 1394.43C813.595 1398.09 813.257 1403.43 813.257 1410.47V1447.41C813.257 1454.18 813.663 1459.39 814.475 1463.05C815.287 1466.56 816.572 1469.07 818.332 1470.56C820.226 1471.91 822.865 1472.59 826.249 1472.59C831.256 1472.59 834.504 1470.96 835.993 1467.71C837.481 1464.33 838.226 1459.19 838.226 1452.29V1442.75H857.917V1450.87C857.917 1463.59 855.548 1473.06 850.812 1479.29C846.21 1485.51 837.887 1488.62 825.843 1488.62ZM877.635 1322.37H899.356V1420.42L931.024 1369.67H953.76L926.152 1415.54L952.948 1487H931.227L909.303 1426.91L899.356 1441.93V1486.8H877.635V1322.37Z" fill="black"/>
<path d="M-16.983 1527.74L163.898 1165.98V465.067L299.559 397.236V1211.2L197.817 1414.69L186.512 1426L-16.983 1527.74ZM209.117 1437.3L751.763 352.016V1301.64H593.492L525.661 1165.98H616.102V939.882L423.917 1324.25L412.612 1335.56L209.117 1437.3ZM1203.97 1392.08L1068.3 1324.25V985.101L1000.47 1120.76L932.644 985.101V1301.64H796.983V397.236L1000.48 804.216L1203.97 397.236L1203.97 1392.08Z" fill="#F25858"/>
<path d="M22.92 317H61.26V95.48H97.47V56.075H-13.29V95.48H22.92V317ZM112.524 317H148.379V163.995C150.628 160.563 152.58 158.197 154.237 156.895C156.012 155.475 157.964 154.765 160.094 154.765C165.774 154.765 168.614 157.605 168.614 163.285V317H204.469V157.96C204.469 147.192 201.866 138.198 196.659 130.98C191.571 123.643 185.181 119.975 177.489 119.975C169.798 119.975 160.094 126.483 148.379 139.5V56.075H112.524V317ZM253.834 319.84C259.514 319.84 264.839 318.183 269.809 314.87C274.779 311.438 278.802 306.942 281.879 301.38H284.364C284.364 309.308 285.429 314.515 287.559 317H322.704C321.757 309.782 321.106 303.747 320.751 298.895C320.396 294.043 320.219 288.837 320.219 283.275V163.995C320.219 155.712 318.266 148.257 314.361 141.63C310.456 135.003 305.19 129.737 298.564 125.832C292.055 121.927 284.719 119.975 276.554 119.975C267.679 119.975 259.573 122.282 252.236 126.897C244.899 131.512 239.042 137.784 234.664 145.712C230.404 153.522 228.274 162.22 228.274 171.805V179.97H264.129C264.129 168.965 264.779 161.451 266.081 157.427C267.383 153.286 270.045 151.215 274.069 151.215C279.275 151.215 282.293 153.345 283.121 157.605C283.949 161.865 284.364 165.652 284.364 168.965V186.005C284.364 188.372 284.068 190.206 283.476 191.507C283.003 192.691 281.464 194.052 278.861 195.59C276.376 197.128 271.998 199.554 265.726 202.867C251.171 210.441 240.639 219.848 234.131 231.09C227.623 242.213 224.369 255.526 224.369 271.027C224.369 285.464 226.913 297.238 232.001 306.35C237.208 315.343 244.485 319.84 253.834 319.84ZM269.809 284.695C262.945 284.695 259.514 278.956 259.514 267.477C259.514 257.301 261.644 248.367 265.904 240.675C270.282 232.983 276.435 227.303 284.364 223.635V272.98C284.364 275.938 282.884 278.66 279.926 281.145C276.968 283.512 273.595 284.695 269.809 284.695ZM391.008 319.84C397.28 319.84 403.67 319.012 410.178 317.355V282.21C404.025 283.157 399.646 283.63 397.043 283.63C389.47 283.63 385.683 272.98 385.683 251.68V155.12H410.178V122.815H385.683V74.89H349.828V122.815H331.723V155.12H349.828V254.52C349.828 277.358 353.082 293.984 359.59 304.397C366.099 314.692 376.571 319.84 391.008 319.84ZM422.999 141.63H440.749L460.274 95.48V56.075H422.999V95.48H435.424L422.999 141.63ZM529.985 319.84C543.948 319.84 555.071 314.988 563.355 305.285C571.638 295.582 575.78 282.683 575.78 266.59C575.78 256.768 573.354 247.538 568.502 238.9C563.651 230.143 555.071 219.612 542.765 207.305C534.126 199.258 528.032 192.513 524.482 187.07C521.051 181.508 519.335 176.006 519.335 170.562C519.335 156.717 523.003 149.795 530.34 149.795C534.481 149.795 537.44 151.57 539.215 155.12C541.108 158.552 542.055 164.35 542.055 172.515H575.425C575.425 154.173 571.756 140.802 564.42 132.4C557.083 123.88 545.486 119.738 529.63 119.975C515.903 120.212 505.194 124.945 497.502 134.175C489.811 143.405 485.965 156.185 485.965 172.515C485.965 179.497 486.971 185.946 488.982 191.862C490.994 197.661 494.485 203.696 499.455 209.967C504.425 216.239 511.288 223.635 520.045 232.155C528.801 240.912 534.718 247.834 537.795 252.922C540.871 258.011 542.41 263.395 542.41 269.075C542.41 283.038 538.268 290.02 529.985 290.02C524.778 290.02 520.696 287.476 517.737 282.387C514.779 277.181 513.3 269.903 513.3 260.555H479.93C479.93 279.37 484.308 293.984 493.065 304.397C501.821 314.692 514.128 319.84 529.985 319.84ZM658.198 317H693.698V141.985H695.828L697.248 152.99L721.743 317H738.073L762.568 152.99L763.988 141.985H766.118V317H801.618V56.075H754.758L732.038 175.355L730.263 189.2H729.553L727.778 175.355L705.058 56.075H658.198V317ZM833.346 386.58C847.783 386.58 859.675 381.61 869.024 371.67C878.372 361.848 884.466 348.477 887.306 331.555L921.741 122.815H886.596L872.396 242.095L871.686 252.035H870.266L869.556 242.095L855.356 122.815H820.211L853.226 322.68C854.883 332.265 852.871 339.898 847.191 345.578C841.63 351.258 834.707 354.098 826.424 354.098C823.939 354.098 822.341 354.038 821.631 353.92V385.87C827.311 386.343 831.216 386.58 833.346 386.58Z" fill="black"/>
</g>
</svg>
